<svg width="143" height="16" viewBox="0 0 143 16" fill="none" xmlns="http://www.w3.org/2000/svg">
<path d="M9.05841 15.9803C0.830309 15.9803 0 12.7591 0 10.7021V10.5777H6.02574C6.08798 11.1591 6.31713 12.4068 9.20411 12.4068H9.32858C12.1335 12.4068 12.5282 11.6585 12.5282 10.9936C12.5282 10.2664 12.1123 9.74724 9.59875 9.68499L7.4374 9.62274C1.72427 9.49825 0.206519 7.37907 0.206519 4.90621V4.74069C0.206519 2.0811 1.90957 0.0651855 8.64255 0.0651855H9.53651C16.9541 0.0651855 18.138 2.64131 18.138 4.90621V5.00948H12.217C12.1335 4.40683 11.7177 3.53397 9.14187 3.53397H8.97637C6.48262 3.53397 6.00452 4.01213 6.00452 4.69825C6.00452 5.38437 6.46141 5.82009 8.76845 5.90356L10.992 5.94458C17.0178 6.1101 18.3884 7.85581 18.3884 10.5989V10.8479C18.3884 13.3617 17.2045 15.9803 9.57895 15.9803H9.05983H9.05841Z" fill="#1C1C1C"/>
<path d="M30.7643 0C39.0122 0 40.7167 4.44633 40.7167 7.64633V8.2702C40.7167 11.4292 39.0334 16 30.7643 16H29.8293C21.6012 16 19.877 11.4278 19.877 8.2702V7.64633C19.8982 4.44633 21.6012 0 29.8293 0H30.7643ZM30.2862 4.19735C26.3794 4.19735 25.7358 6.33775 25.7358 7.81326V8.04244C25.7358 9.53917 26.4416 11.7418 30.306 11.7418C34.1704 11.7418 34.8564 9.53917 34.8564 8.04244V7.81326C34.8564 6.33775 34.2128 4.19735 30.2862 4.19735Z" fill="#1C1C1C"/>
<path d="M53.0963 0C61.3443 0 63.0487 4.44633 63.0487 7.64633V8.2702C63.0487 11.4292 61.3655 16 53.0963 16H52.1614C43.9332 16 42.209 11.4278 42.209 8.2702V7.64633C42.2302 4.44633 43.9332 0 52.1614 0H53.0963ZM52.6182 4.19735C48.7114 4.19735 48.0678 6.33775 48.0678 7.81326V8.04244C48.0678 9.53917 48.7736 11.7418 52.638 11.7418C56.5024 11.7418 57.1885 9.53917 57.1885 8.04244V7.81326C57.1885 6.33775 56.5449 4.19735 52.6182 4.19735Z" fill="#1C1C1C"/>
<path d="M64.5527 0.270264H70.1626V5.71394H77.9961V0.270264H83.5847V15.7299H77.9961V9.87026H70.1626V15.7299H64.5527V0.270264Z" fill="#1C1C1C"/>
<path d="M95.9811 0C104.229 0 105.933 4.44633 105.933 7.64633V8.2702C105.933 11.4292 104.25 16 95.9811 16H95.0461C86.818 16 85.0938 11.4278 85.0938 8.2702V7.64633C85.115 4.44633 86.818 0 95.0461 0H95.9811ZM95.503 4.19735C91.5962 4.19735 90.9526 6.33775 90.9526 7.81326V8.04244C90.9526 9.53917 91.6584 11.7418 95.5228 11.7418C99.3872 11.7418 100.073 9.53917 100.073 8.04244V7.81326C100.073 6.33775 99.4296 4.19735 95.503 4.19735Z" fill="#1C1C1C"/>
<path d="M120.228 15.7299H114.617V0.270264H120.228V15.7299Z" fill="#1C1C1C"/>
<path d="M132.628 0C140.876 0 142.58 4.44633 142.58 7.64633V8.2702C142.58 11.4292 140.897 16 132.628 16H131.693C123.465 16 121.74 11.4278 121.74 8.2702V7.64633C121.761 4.44633 123.465 0 131.693 0H132.628ZM132.15 4.19735C128.243 4.19735 127.599 6.33775 127.599 7.81326V8.04244C127.599 9.53917 128.305 11.7418 132.169 11.7418C136.034 11.7418 136.72 9.53917 136.72 8.04244V7.81326C136.72 6.33775 136.076 4.19735 132.15 4.19735Z" fill="#1C1C1C"/>
<path d="M110.272 15.9999C111.836 15.9999 113.103 14.7325 113.103 13.1691C113.103 11.6058 111.836 10.3384 110.272 10.3384C108.709 10.3384 107.441 11.6058 107.441 13.1691C107.441 14.7325 108.709 15.9999 110.272 15.9999Z" fill="#1C1C1C"/>
</svg>
